<svg width="230" height="64" viewBox="0 0 230 64" fill="none" xmlns="http://www.w3.org/2000/svg">
<path d="M82.0386 13.6669H78.5706C78.1827 15.8779 76.4818 17.4235 74.2845 17.4235C71.6353 17.4235 69.8476 15.3198 69.8476 12.2931C69.8476 9.28784 71.6353 7.20562 74.2845 7.20562C76.4818 7.20562 78.2045 8.72968 78.5706 10.9407H82.0386C81.4997 6.99096 78.312 4.28624 74.2415 4.28624C69.8907 4.28624 66.4877 7.7852 66.4877 12.2931C66.4877 16.8224 69.8907 20.3428 74.2415 20.3428C78.312 20.3428 81.4997 17.6595 82.0386 13.6669ZM94.9645 14.2894C94.9645 10.9407 92.4442 8.34334 89.1273 8.34334C85.7885 8.34334 83.2901 10.9407 83.2901 14.2894C83.2901 17.6166 85.7885 20.2355 89.1273 20.2355C92.4442 20.2355 94.9645 17.6166 94.9645 14.2894ZM86.3703 14.2894C86.3703 12.1643 87.6413 11.0051 89.1273 11.0051C90.6132 11.0051 91.8625 12.1643 91.8625 14.2894C91.8625 16.4145 90.6132 17.5952 89.1273 17.5952C87.6195 17.5952 86.3703 16.4145 86.3703 14.2894ZM99.7403 13.7742C99.7403 11.9282 100.753 10.9837 101.937 10.9837C103.294 10.9837 103.962 11.9282 103.962 13.6239V20.0209H106.934V12.6151C106.934 9.84593 105.362 8.34334 103.057 8.34334C101.528 8.34334 100.365 9.05168 99.5036 10.1894V8.558H96.7676V20.0209H99.7403V13.7742ZM118.996 16.3501C118.996 14.6758 117.876 13.6669 115.614 13.2376L113.417 12.8297C112.384 12.658 111.909 12.336 111.909 11.7349C111.909 11.0266 112.62 10.5114 113.74 10.5114C114.989 10.5114 115.851 11.1983 115.959 12.336H118.802C118.608 9.86742 116.627 8.32184 113.719 8.32184C111.027 8.32184 109.045 9.82451 109.045 11.9496C109.045 13.7742 110.316 14.869 112.341 15.2339L114.43 15.6203C115.507 15.8349 116.002 16.1569 116.002 16.7795C116.002 17.5523 115.248 18.046 113.848 18.046C112.405 18.046 111.458 17.3161 111.414 16.114H108.571C108.786 18.69 110.833 20.2355 113.912 20.2355C117.1 20.2355 118.996 18.69 118.996 16.3501ZM131.836 14.2894C131.836 10.9407 129.316 8.34334 125.999 8.34334C122.661 8.34334 120.162 10.9407 120.162 14.2894C120.162 17.6166 122.661 20.2355 125.999 20.2355C129.316 20.2355 131.836 17.6166 131.836 14.2894ZM123.242 14.2894C123.242 12.1643 124.513 11.0051 125.999 11.0051C127.485 11.0051 128.735 12.1643 128.735 14.2894C128.735 16.4145 127.485 17.5952 125.999 17.5952C124.492 17.5952 123.242 16.4145 123.242 14.2894ZM136.612 14.4611C136.612 11.9282 138.335 11.3056 140.877 11.5203V8.51508C138.96 8.32184 137.215 9.30926 136.376 10.769V8.558H133.64V20.0209H136.612V14.4611ZM149.583 19.7203V17.1229C149.153 17.359 148.636 17.4879 148.076 17.4879C146.978 17.4879 146.375 16.9512 146.375 15.6203V11.1124H149.67V8.558H146.375V5.16635H143.402V8.558H141.097V11.1124H143.402V16.3072C143.402 18.8831 144.91 20.2355 147.279 20.2355C148.162 20.2355 148.851 20.0852 149.583 19.7203ZM155.179 5.8962C155.179 4.84436 154.36 4.09305 153.175 4.09305C151.991 4.09305 151.172 4.84436 151.172 5.8962C151.172 6.9051 151.991 7.65641 153.175 7.65641C154.36 7.65641 155.179 6.9051 155.179 5.8962ZM154.683 20.0209V8.558H151.711V20.0209H154.683ZM164.388 20.0209H167.124V8.558H164.152V15.1909C164.152 16.7365 163.183 17.5952 162.106 17.5952C160.943 17.5952 160.145 16.8868 160.145 15.2769V8.558H157.173V15.8564C157.173 18.8402 158.853 20.2355 161.158 20.2355C162.601 20.2355 163.764 19.5056 164.388 18.4968V20.0209ZM172.6 13.6239C172.6 11.9067 173.634 10.9837 174.84 10.9837C176.197 10.9837 176.887 11.9496 176.887 13.5596V20.0209H179.858V13.6239C179.858 11.9067 180.893 10.9837 182.098 10.9837C183.456 10.9837 184.144 11.9496 184.144 13.5596V20.0209H187.117V12.6151C187.117 9.86742 185.545 8.34334 183.24 8.34334C181.496 8.34334 180.203 9.11609 179.299 10.3826C178.717 9.05168 177.511 8.34334 175.96 8.34334C174.409 8.34334 173.204 9.03025 172.363 10.1679V8.558H169.628V20.0209H172.6V13.6239ZM199.318 20.0209V11.1124H202.334V8.558H199.318V7.99986C199.318 7.20562 199.878 6.88363 200.697 6.88363C201.085 6.88363 201.515 6.94803 201.839 7.07682V4.71557C201.343 4.5009 200.719 4.37211 199.986 4.37211C197.596 4.37211 196.346 5.66007 196.346 7.93547V8.558H194.042V11.1124H196.346V20.0209H199.318ZM214.519 14.2894C214.519 10.9407 211.999 8.34334 208.682 8.34334C205.343 8.34334 202.845 10.9407 202.845 14.2894C202.845 17.6166 205.343 20.2355 208.682 20.2355C211.999 20.2355 214.519 17.6166 214.519 14.2894ZM205.925 14.2894C205.925 12.1643 207.196 11.0051 208.682 11.0051C210.168 11.0051 211.417 12.1643 211.417 14.2894C211.417 16.4145 210.168 17.5952 208.682 17.5952C207.174 17.5952 205.925 16.4145 205.925 14.2894ZM219.295 14.4611C219.295 11.9282 221.018 11.3056 223.56 11.5203V8.51508C221.643 8.32184 219.898 9.30926 219.058 10.769V8.558H216.323V20.0209H219.295V14.4611ZM70.7091 40.816V25.4035H67.4353V40.816H70.7091ZM76.5614 34.5694C76.5614 32.7233 77.5739 31.7788 78.7585 31.7788C80.1152 31.7788 80.7826 32.7233 80.7826 34.4192V40.816H83.7553V33.4103C83.7553 30.6412 82.1829 29.1385 79.8784 29.1385C78.3488 29.1385 77.1861 29.8469 76.3247 30.9846V29.3532H73.5891V40.816H76.5614V34.5694ZM93.3612 40.5155V37.9181C92.9305 38.1543 92.4134 38.283 91.8534 38.283C90.7553 38.283 90.1525 37.7464 90.1525 36.4155V31.9077H93.4477V29.3532H90.1525V25.9616H87.1798V29.3532H84.8753V31.9077H87.1798V37.1024C87.1798 39.6784 88.6876 41.0307 91.0567 41.0307C91.9399 41.0307 92.6291 40.8804 93.3612 40.5155ZM105.827 36.9307H102.876C102.531 38.0684 101.627 38.7124 100.313 38.7124C98.7835 38.7124 97.7718 37.5747 97.75 35.8144H105.87C106.408 32.0793 103.996 29.1385 100.356 29.1385C97.039 29.1385 94.6488 31.6286 94.6488 35.0417C94.6488 38.6479 96.9743 41.0093 100.4 41.0093C103.178 41.0093 105.181 39.5066 105.827 36.9307ZM100.291 31.3281C101.692 31.3281 102.618 32.337 102.682 33.9254H97.75C97.8793 32.4013 98.8699 31.3281 100.291 31.3281ZM110.74 35.2563C110.74 32.7233 112.464 32.1008 115.005 32.3155V29.3102C113.089 29.1171 111.344 30.1045 110.504 31.5642V29.3532H107.769V40.816H110.74V35.2563ZM123.282 40.816H125.716V33.6034C125.716 30.7914 123.928 29.1385 120.934 29.1385C118.285 29.1385 116.218 30.9846 116.067 33.4962H118.759C118.759 32.1652 119.664 31.4568 120.913 31.4568C122.162 31.4568 122.894 32.1867 122.894 33.4962V34.183C122.248 34.0972 121.645 34.0543 120.978 34.0543C117.639 34.0543 115.83 35.2563 115.83 37.4888C115.83 39.6354 117.402 41.0307 119.792 41.0307C121.387 41.0307 122.507 40.4726 123.282 39.3993V40.816ZM118.63 37.4029C118.63 36.3726 119.491 35.8359 121.171 35.8359C121.731 35.8359 122.27 35.8788 122.894 35.9862V36.8019C122.894 38.1328 121.968 38.9699 120.461 38.9699C119.319 38.9699 118.63 38.3689 118.63 37.4029ZM138.577 35.9218H135.432C135.281 37.2742 134.397 38.3904 132.998 38.3904C131.49 38.3904 130.456 37.0166 130.456 35.0846C130.456 33.0883 131.49 31.8003 132.998 31.8003C134.419 31.8003 135.281 32.8736 135.432 34.2474H138.577C138.232 31.1992 136.034 29.1385 132.976 29.1385C129.746 29.1385 127.397 31.6501 127.397 35.0846C127.397 38.4763 129.746 41.0307 132.976 41.0307C135.992 41.0307 138.232 38.9699 138.577 35.9218ZM147.607 40.5155V37.9181C147.175 38.1543 146.659 38.283 146.099 38.283C145 38.283 144.397 37.7464 144.397 36.4155V31.9077H147.692V29.3532H144.397V25.9616H141.424V29.3532H139.12V31.9077H141.424V37.1024C141.424 39.6784 142.932 41.0307 145.301 41.0307C146.185 41.0307 146.874 40.8804 147.607 40.5155ZM153.201 26.6914C153.201 25.6396 152.383 24.8882 151.198 24.8882C150.013 24.8882 149.195 25.6396 149.195 26.6914C149.195 27.7003 150.013 28.4517 151.198 28.4517C152.383 28.4517 153.201 27.7003 153.201 26.6914ZM152.706 40.816V29.3532H149.733V40.816H152.706ZM158.277 34.5694C158.277 32.7233 159.289 31.7788 160.474 31.7788C161.831 31.7788 162.499 32.7233 162.499 34.4192V40.816H165.471V33.4103C165.471 30.6412 163.898 29.1385 161.594 29.1385C160.065 29.1385 158.901 29.8469 158.04 30.9846V29.3532H155.305V40.816H158.277V34.5694ZM178.286 40.2794V29.3532H175.551V30.9202C174.711 29.7396 173.548 29.1385 171.997 29.1385C169.133 29.1385 167.172 31.4568 167.172 34.7626C167.172 37.9611 169.24 40.3867 172.105 40.3867C173.505 40.3867 174.69 39.7213 175.314 38.6479V40.3224C175.314 41.9752 174.474 42.8553 172.794 42.8553C171.243 42.8553 170.447 42.1899 170.382 40.8589H167.517C167.603 43.4993 169.714 45.1736 172.816 45.1736C176.262 45.1736 178.286 43.3061 178.286 40.2794ZM170.166 34.7626C170.166 32.8736 171.157 31.7144 172.686 31.7144C174.259 31.7144 175.292 32.9166 175.292 34.7841C175.292 36.5658 174.28 37.8108 172.686 37.8108C171.136 37.8108 170.166 36.6302 170.166 34.7626ZM74.1984 61.6113H77.0846L81.1554 51.2861V61.6113H84.1492V46.1986H80.2294L75.7489 57.6186L71.2476 46.1986H67.3276V61.6113H70.1276V51.372L74.1984 61.6113ZM90.4997 47.4866C90.4997 46.4348 89.6812 45.6835 88.4966 45.6835C87.3121 45.6835 86.4935 46.4348 86.4935 47.4866C86.4935 48.4956 87.3121 49.2468 88.4966 49.2468C89.6812 49.2468 90.4997 48.4956 90.4997 47.4866ZM90.0044 61.6113V50.1484H87.0317V61.6113H90.0044ZM95.5755 55.3647C95.5755 53.5186 96.588 52.5741 97.7726 52.5741C99.1293 52.5741 99.7975 53.5186 99.7975 55.2144V61.6113H102.769V54.2055C102.769 51.4363 101.197 49.9337 98.8925 49.9337C97.3637 49.9337 96.2001 50.6421 95.3388 51.7798V50.1484H92.6036V61.6113H95.5755V55.3647ZM113.216 61.6113H115.951V46.1986H112.979V51.6296C112.117 50.5348 110.933 49.9337 109.575 49.9337C106.474 49.9337 104.471 52.4882 104.471 55.8798C104.471 59.2285 106.474 61.8259 109.575 61.8259C111.062 61.8259 112.311 61.1604 113.216 59.9583V61.6113ZM107.551 55.8798C107.551 53.6903 108.779 52.5741 110.244 52.5741C111.687 52.5741 112.936 53.6688 112.957 55.8369C112.979 58.0049 111.73 59.1641 110.244 59.1641C108.779 59.1641 107.551 58.0264 107.551 55.8798ZM128.124 57.9406C128.124 56.2662 127.004 55.2573 124.743 54.828L122.546 54.4202C121.512 54.2484 121.038 53.9264 121.038 53.3254C121.038 52.617 121.749 52.1018 122.869 52.1018C124.118 52.1018 124.979 52.7887 125.088 53.9264H127.93C127.736 51.4578 125.755 49.9123 122.847 49.9123C120.155 49.9123 118.173 51.4149 118.173 53.54C118.173 55.3647 119.444 56.4594 121.469 56.8243L123.558 57.2108C124.635 57.4254 125.131 57.7473 125.131 58.3699C125.131 59.1427 124.377 59.6363 122.976 59.6363C121.533 59.6363 120.586 58.9065 120.543 57.7044H117.7C117.915 60.2803 119.962 61.8259 123.041 61.8259C126.229 61.8259 128.124 60.2803 128.124 57.9406Z" fill="black"/>
<path fill-rule="evenodd" clip-rule="evenodd" d="M18.6106 8.55876C20.6802 8.75163 22.7024 9.72177 24.0433 11.2497C25.8799 13.3425 26.812 15.5469 26.812 18.075H23.3091C23.3091 16.5283 22.7814 15.1156 21.4071 13.5496C20.7045 12.7491 19.5365 12.1529 18.2847 12.0363C17.0647 11.9226 15.901 12.271 15.048 13.1677C13.9229 14.3506 14.0674 16.2786 15.0985 17.2249C16.0621 18.109 16.7144 18.1029 18.8652 18.0825C19.2301 18.079 19.6381 18.0751 20.0981 18.0751C24.2041 18.0751 26.8069 21.1058 26.8069 24.5786C26.8069 26.7386 25.4182 29.5794 22.515 30.5208C21.2154 30.9422 19.6636 31.0822 18.0684 30.5246C16.4659 29.9645 15.0153 28.7692 13.804 26.8712C12.9268 25.4967 11.9965 24.6337 11.0962 24.2088C10.251 23.8097 9.31163 23.7359 8.18561 24.1661C6.16212 24.9391 5.53889 27.1891 5.90932 28.6664C6.24843 30.019 7.59407 31.4959 9.87799 31.4959C12.5955 31.4959 14.2176 31.4968 15.5642 31.4978L16.071 31.498C17.1948 31.4989 18.1889 31.4995 19.5972 31.4995C23.9141 31.4995 26.8012 35.2039 26.8012 38.6679C26.8012 41.6277 25.3184 43.7699 23.3667 44.9594C21.4979 46.0983 19.1359 46.3993 17.2293 45.6902C14.8334 44.7991 13.4036 43.4128 12.284 42.2348C12.1802 42.1258 12.0803 42.02 11.9842 41.9185C11.0024 40.8803 10.3897 40.2325 9.4606 39.8415C7.87954 39.1759 6.61568 39.4746 5.69877 40.1122C4.70269 40.8049 4.11456 41.9005 4.03408 42.7664C3.9404 43.7739 4.22531 44.868 4.86397 45.6804C5.46422 46.4437 6.44236 47.0478 7.99093 47.0478H19.6809C23.2187 47.0478 26.8118 50.1156 26.8118 54.113C26.8118 55.6395 26.4175 57.2441 25.445 58.604C24.4542 59.9896 22.9436 61.0066 20.9411 61.4406C18.0261 62.0724 15.3074 61.0141 13.1461 59.3273C10.9876 57.6426 9.22775 55.2246 8.08083 52.7265L11.2659 51.2729C12.2247 53.3612 13.6656 55.2973 15.3052 56.5771C16.9417 57.8542 18.618 58.3699 20.1969 58.0276C21.4053 57.7658 22.1404 57.2093 22.5928 56.5765C23.0632 55.9185 23.3091 55.0603 23.3091 54.113C23.3091 52.2075 21.4515 50.5403 19.6809 50.5403H7.99093C5.38862 50.5403 3.38519 49.4608 2.10717 47.8353C0.867533 46.2583 0.377471 44.2583 0.546108 42.4442C0.727915 40.4883 1.90894 38.4897 3.6948 37.2477C5.55983 35.9506 8.09068 35.4738 10.8229 36.6237C12.4768 37.3199 13.6051 38.5271 14.5099 39.4955C14.6183 39.6117 14.7238 39.7242 14.8264 39.8325C15.8295 40.8876 16.8134 41.8077 18.4538 42.4179C19.2342 42.7081 20.4762 42.6278 21.5398 41.9796C22.5205 41.3818 23.2983 40.3315 23.2983 38.6679C23.2983 36.8907 21.7455 34.9922 19.5972 34.9922C18.1884 34.9922 17.1933 34.9916 16.07 34.9907L15.5618 34.9903C14.2157 34.9894 12.5945 34.9885 9.87799 34.9885C5.86163 34.9885 3.2088 32.2966 2.511 29.5135C1.84448 26.8553 2.78769 22.488 6.93229 20.9047C8.91319 20.1479 10.8488 20.2277 12.5951 21.052C14.2864 21.8503 15.6639 23.2797 16.7593 24.996C17.6438 26.3819 18.518 26.9808 19.227 27.2286C19.9433 27.4788 20.6892 27.4402 21.4316 27.1994C22.6122 26.8166 23.304 25.5415 23.304 24.5786C23.304 22.9534 22.1889 21.5677 20.0981 21.5677C19.7594 21.5677 19.4201 21.5755 19.08 21.5833C16.9394 21.6323 14.7825 21.6816 12.7264 19.7948C10.2478 17.5202 10.0442 13.3528 12.5064 10.7644C14.2209 8.96194 16.5093 8.36296 18.6106 8.55876Z" fill="black"/>
<path fill-rule="evenodd" clip-rule="evenodd" d="M35.9333 8.55876C33.8638 8.75163 31.8416 9.72177 30.5008 11.2497C28.6641 13.3425 27.732 15.5469 27.732 18.075H31.235C31.235 16.5283 31.7625 15.1156 33.1368 13.5496C33.8393 12.7491 35.0077 12.1529 36.2593 12.0363C37.4792 11.9226 38.6431 12.271 39.496 13.1677C40.6209 14.3506 40.4765 16.2786 39.4455 17.2249C38.4819 18.109 37.8294 18.1029 35.6787 18.0825C35.3138 18.079 34.9057 18.0751 34.4457 18.0751C30.3396 18.0751 27.737 21.1058 27.737 24.5786C27.737 26.7386 29.1257 29.5794 32.0289 30.5208C33.3285 30.9422 34.8803 31.0822 36.4756 30.5246C38.0779 29.9645 39.5287 28.7692 40.7398 26.8712C41.6169 25.4967 42.5475 24.6337 43.4476 24.2088C44.293 23.8097 45.2323 23.7359 46.3585 24.1661C48.3817 24.9391 49.0049 27.1891 48.6348 28.6664C48.2956 30.019 46.9498 31.4959 44.666 31.4959C41.9483 31.4959 40.3264 31.4968 38.9796 31.4978L38.4731 31.498C37.3493 31.4989 36.355 31.4995 34.9469 31.4995C30.6298 31.4995 27.7428 35.2039 27.7428 38.6679C27.7428 41.6277 29.2254 43.7699 31.1772 44.9594C33.0459 46.0983 35.4081 46.3993 37.3146 45.6902C39.7106 44.7991 41.1403 43.4128 42.2597 42.2348C42.3637 42.1258 42.4636 42.02 42.5598 41.9185C43.5416 40.8803 44.1543 40.2325 45.0834 39.8415C46.6643 39.1759 47.9283 39.4746 48.8452 40.1122C49.8412 40.8049 50.4294 41.9005 50.51 42.7664C50.6034 43.7739 50.3184 44.868 49.6801 45.6804C49.0796 46.4437 48.1015 47.0478 46.5528 47.0478H34.8631C31.3252 47.0478 27.732 50.1156 27.732 54.113C27.732 55.6395 28.1266 57.2441 29.0991 58.604C30.0895 59.9896 31.6004 61.0066 33.6029 61.4406C36.5179 62.0724 39.2364 61.0141 41.3978 59.3273C43.5561 57.6426 45.316 55.2246 46.4632 52.7265L43.2783 51.2729C42.3194 53.3612 40.8782 55.2973 39.2388 56.5771C37.6021 57.8542 35.926 58.3699 34.347 58.0276C33.1386 57.7658 32.4036 57.2093 31.9514 56.5765C31.4808 55.9185 31.235 55.0603 31.235 54.113C31.235 52.2075 33.0923 50.5403 34.8631 50.5403H46.5528C49.1552 50.5403 51.1585 49.4608 52.4369 47.8353C53.6762 46.2583 54.1664 44.2583 53.9977 42.4442C53.8161 40.4883 52.635 38.4897 50.8493 37.2477C48.9841 35.9506 46.4534 35.4738 43.7211 36.6237C42.0671 37.3199 40.9389 38.5271 40.0343 39.4955C39.9257 39.6117 39.8203 39.7242 39.7175 39.8325C38.7146 40.8876 37.7305 41.8077 36.0899 42.4179C35.3097 42.7081 34.0677 42.6278 33.0042 41.9796C32.0234 41.3818 31.2454 40.3315 31.2454 38.6679C31.2454 36.8907 32.7985 34.9922 34.9469 34.9922C36.3557 34.9922 37.3507 34.9916 38.474 34.9907L38.9819 34.9903C40.3282 34.9894 41.9495 34.9885 44.666 34.9885C48.6824 34.9885 51.3352 32.2966 52.0328 29.5135C52.6996 26.8553 51.7561 22.488 47.6116 20.9047C45.6307 20.1479 43.6951 20.2277 41.9489 21.052C40.2576 21.8503 38.8801 23.2797 37.7847 24.996C36.9001 26.3819 36.0257 26.9808 35.3167 27.2286C34.6007 27.4788 33.8548 27.4402 33.1123 27.1994C31.9317 26.8166 31.2399 25.5415 31.2399 24.5786C31.2399 22.9534 32.3551 21.5677 34.4457 21.5677C34.7846 21.5677 35.1241 21.5755 35.4639 21.5833C37.6046 21.6323 39.7613 21.6816 41.8175 19.7948C44.2962 17.5202 44.4996 13.3528 42.0376 10.7644C40.3233 8.96194 38.0347 8.36296 35.9333 8.55876Z" fill="black"/>
</svg>
